<svg xmlns="http://www.w3.org/2000/svg" fill="none" viewBox="0 0 16 16" width="24" height="24">
  <g fill="#95EA8B" clip-path="url(#a)">
    <path fill-rule="evenodd" d="M8 .28a7.72 7.72 0 0 0-1.76 15.24 7.26 7.26 0 0 1-2.13-2.28 6.44 6.44 0 0 1-1.93-2.27H4.3a7.7 7.7 0 0 1 1.43-1.59c-.14-1.05-.12-2.12.06-3.16h4.45c.08.5.13 1.02.14 1.53.4 0 .8.05 1.2.12-.01-.55-.06-1.1-.14-1.65h2.85a6.5 6.5 0 0 1 .16 2.9 7.3 7.3 0 0 1 1.01.9A7.72 7.72 0 0 0 8 .28ZM1.47 8c0-.6.08-1.2.25-1.78h2.85a11.68 11.68 0 0 0 0 3.56H1.72A6.5 6.5 0 0 1 1.47 8Zm4.6-2.97A8.54 8.54 0 0 1 8 1.7c.89.95 1.55 2.1 1.93 3.34H6.07Zm5.1 0c-.33-1.22-.9-2.37-1.66-3.38a6.55 6.55 0 0 1 4.3 3.38h-2.64ZM6.49 1.65a10.04 10.04 0 0 0-1.66 3.38H2.18a6.55 6.55 0 0 1 4.3-3.38Z" clip-rule="evenodd"/>
    <path d="M15.7 12.05c-.01-.04-.4-.85-1.26-1.65a6.01 6.01 0 0 0-4.19-1.65 6 6 0 0 0-4.19 1.65c-.86.8-1.25 1.61-1.26 1.65a.48.48 0 0 0 0 .4c.01.04.4.85 1.26 1.65a6.01 6.01 0 0 0 4.19 1.65 6 6 0 0 0 4.19-1.65 6.08 6.08 0 0 0 1.26-1.65.48.48 0 0 0 0-.4Zm-2.04 1.37a4.87 4.87 0 0 1-3.41 1.33 4.87 4.87 0 0 1-3.41-1.33c-.37-.35-.7-.74-.96-1.17.26-.43.59-.82.96-1.17a4.87 4.87 0 0 1 3.41-1.33c1.31 0 2.46.45 3.41 1.33.38.35.7.74.96 1.17a5.5 5.5 0 0 1-.96 1.17Zm-3.41-3c-.39 0-.76.1-1.08.3-.32.2-.57.5-.72.83a1.73 1.73 0 0 0 .42 2 2.07 2.07 0 0 0 2.13.4c.35-.15.66-.38.87-.68a1.76 1.76 0 0 0-.24-2.32 2.02 2.02 0 0 0-1.38-.53Zm0 2.66a.93.93 0 0 1-.5-.14.85.85 0 0 1-.32-.37.79.79 0 0 1 .2-.9.94.94 0 0 1 .97-.18c.15.05.29.16.39.3a.8.8 0 0 1-.11 1.05.92.92 0 0 1-.63.24Z"/>
  </g>
  <defs>
    <clipPath id="a">
      <path fill="#fff" d="M0 0h16v16H0z"/>
    </clipPath>
  </defs>
</svg>
