<?xml version="1.0" encoding="UTF-8"?>
<svg xmlns="http://www.w3.org/2000/svg" xmlns:xlink="http://www.w3.org/1999/xlink" width="24px" height="24px" viewBox="0 0 24 24" version="1.1">
<g id="surface1">
<path style=" stroke:none;fill-rule:nonzero;fill:rgb(100%,80.000001%,30.19608%);fill-opacity:1;" d="M 1.769531 23.332031 C 0.539062 23.332031 0 22.441406 0.566406 21.351562 L 10.96875 1.316406 C 11.535156 0.226562 12.460938 0.226562 13.027344 1.316406 L 23.433594 21.351562 C 24 22.441406 23.460938 23.332031 22.230469 23.332031 Z M 1.769531 23.332031 "/>
<path style=" stroke:none;fill-rule:nonzero;fill:rgb(13.725491%,12.156863%,12.54902%);fill-opacity:1;" d="M 10.386719 19.300781 C 10.390625 18.410156 11.109375 17.691406 12 17.691406 C 12.890625 17.691406 13.613281 18.414062 13.613281 19.300781 C 13.613281 20.191406 12.890625 20.914062 12 20.914062 C 11.109375 20.914062 10.390625 20.191406 10.386719 19.300781 Z M 10.511719 7.105469 C 10.511719 6.238281 11.152344 5.703125 12 5.703125 C 12.828125 5.703125 13.488281 6.257812 13.488281 7.105469 L 13.488281 15.066406 C 13.488281 15.914062 12.828125 16.46875 12 16.46875 C 11.152344 16.46875 10.511719 15.933594 10.511719 15.066406 Z M 10.511719 7.105469 "/>
</g>
</svg>
