<?xml version="1.0" encoding="UTF-8"?>
<svg xmlns="http://www.w3.org/2000/svg" xmlns:xlink="http://www.w3.org/1999/xlink" width="64px" height="64px" viewBox="0 0 64 64" version="1.1">
<g id="surface1">
<path style=" stroke:none;fill-rule:nonzero;fill:rgb(69.803922%,69.803922%,69.803922%);fill-opacity:1;" d="M 32 8 C 21.773438 8 8.835938 15.792969 4.179688 30.820312 C 3.972656 31.539062 3.972656 32.300781 4.179688 33.019531 C 8.652344 48.84375 22 56 32 56 C 42 56 55.34375 48.84375 59.84375 33.101562 C 60.050781 32.382812 60.050781 31.617188 59.84375 30.898438 C 55.445312 15.738281 42.214844 8 32 8 Z M 32 16 C 40.835938 16 48 23.164062 48 32 C 48 40.835938 40.835938 48 32 48 C 23.164062 48 16 40.835938 16 32 C 16 23.164062 23.164062 16 32 16 Z M 32 24 C 27.582031 24 24 27.582031 24 32 C 24 36.417969 27.582031 40 32 40 C 36.417969 40 40 36.417969 40 32 C 40 27.582031 36.417969 24 32 24 Z M 32 24 "/>
</g>
</svg>
