<?xml version="1.0" encoding="UTF-8"?>
<svg xmlns="http://www.w3.org/2000/svg" xmlns:xlink="http://www.w3.org/1999/xlink" width="24px" height="24px" viewBox="0 0 24 24" version="1.1">
<g id="surface1">
<path style=" stroke:none;fill-rule:nonzero;fill:rgb(69.803922%,69.803922%,69.803922%);fill-opacity:1;" d="M 12 3 C 8.164062 3 3.3125 5.921875 1.566406 11.558594 C 1.492188 11.828125 1.492188 12.113281 1.566406 12.382812 C 3.246094 18.316406 8.25 21 12 21 C 15.75 21 20.753906 18.316406 22.441406 12.414062 C 22.519531 12.144531 22.519531 11.855469 22.441406 11.585938 C 20.792969 5.902344 15.832031 3 12 3 Z M 12 6 C 15.3125 6 18 8.6875 18 12 C 18 15.3125 15.3125 18 12 18 C 8.6875 18 6 15.3125 6 12 C 6 8.6875 8.6875 6 12 6 Z M 12 9 C 10.34375 9 9 10.34375 9 12 C 9 13.65625 10.34375 15 12 15 C 13.65625 15 15 13.65625 15 12 C 15 10.34375 13.65625 9 12 9 Z M 12 9 "/>
</g>
</svg>
