<?xml version="1.0" encoding="UTF-8"?>
<svg xmlns="http://www.w3.org/2000/svg" xmlns:xlink="http://www.w3.org/1999/xlink" width="48px" height="48px" viewBox="0 0 48 48" version="1.1">
<g id="surface1">
<path style=" stroke:none;fill-rule:nonzero;fill:rgb(69.803922%,69.803922%,69.803922%);fill-opacity:1;" d="M 24 6 C 16.328125 6 6.628906 11.84375 3.136719 23.113281 C 2.980469 23.652344 2.980469 24.226562 3.136719 24.765625 C 6.488281 36.632812 16.5 42 24 42 C 31.5 42 41.507812 36.632812 44.882812 24.824219 C 45.039062 24.285156 45.039062 23.714844 44.882812 23.175781 C 41.582031 11.804688 31.660156 6 24 6 Z M 24 12 C 30.628906 12 36 17.371094 36 24 C 36 30.628906 30.628906 36 24 36 C 17.371094 36 12 30.628906 12 24 C 12 17.371094 17.371094 12 24 12 Z M 24 18 C 20.6875 18 18 20.6875 18 24 C 18 27.3125 20.6875 30 24 30 C 27.3125 30 30 27.3125 30 24 C 30 20.6875 27.3125 18 24 18 Z M 24 18 "/>
</g>
</svg>
